<svg width="16" height="9" viewBox="0 0 16 9" fill="none" xmlns="http://www.w3.org/2000/svg">
<path d="M11.2305 8.15828C11.0778 8.0055 11.0014 7.81106 11.0014 7.57494C11.0014 7.33883 11.0778 7.14439 11.2305 6.99161L12.793 5.42911H7.64722C7.41111 5.42911 7.21333 5.34911 7.05388 5.18911C6.89388 5.02967 6.81388 4.83189 6.81388 4.59578C6.81388 4.35967 6.89388 4.16161 7.05388 4.00161C7.21333 3.84217 7.41111 3.76244 7.64722 3.76244H12.793L11.2305 2.19994C11.0778 2.04717 11.0014 1.84911 11.0014 1.60578C11.0014 1.363 11.0778 1.16522 11.2305 1.01244C11.3833 0.859666 11.5778 0.783278 11.8139 0.783278C12.05 0.783278 12.2444 0.859666 12.3972 1.01244L15.3972 4.01244C15.4805 4.09578 15.5397 4.18606 15.5747 4.28328C15.6092 4.3805 15.6264 4.48467 15.6264 4.59578C15.6264 4.70689 15.6092 4.81106 15.5747 4.90828C15.5397 5.0055 15.4805 5.09578 15.3972 5.17911L12.3972 8.17911C12.2444 8.33189 12.05 8.40467 11.8139 8.39744C11.5778 8.39078 11.3833 8.31105 11.2305 8.15828ZM3.96446 8.17788L0.964457 5.17788C0.881124 5.09454 0.822235 5.00427 0.78779 4.90704C0.75279 4.80982 0.735291 4.70565 0.735291 4.59454C0.735291 4.48343 0.75279 4.37927 0.78779 4.28204C0.822235 4.18482 0.881124 4.09454 0.964457 4.01121L3.96446 1.01121C4.11724 0.858432 4.31168 0.782043 4.54779 0.782043C4.7839 0.782043 4.97835 0.858432 5.13112 1.01121C5.2839 1.16399 5.36029 1.36177 5.36029 1.60454C5.36029 1.84788 5.2839 2.04593 5.13112 2.19871L3.56862 3.76121H8.71446C8.95057 3.76121 9.14862 3.84093 9.30862 4.00038C9.46807 4.16038 9.54779 4.35843 9.54779 4.59454C9.54779 4.83065 9.46807 5.02843 9.30862 5.18788C9.14862 5.34788 8.95057 5.42788 8.71446 5.42788H3.56862L5.13112 6.99038C5.2839 7.14315 5.36029 7.3376 5.36029 7.57371C5.36029 7.80982 5.2839 8.00426 5.13112 8.15704C4.97835 8.30982 4.7839 8.38954 4.54779 8.39621C4.31168 8.40343 4.11724 8.33065 3.96446 8.17788Z" fill="#00704B"/>
</svg>
