<svg width="14" height="16" viewBox="0 0 14 16" fill="none" xmlns="http://www.w3.org/2000/svg">
<path d="M6.99997 3.83333C7.23608 3.83333 7.43414 3.75361 7.59414 3.59417C7.75358 3.43417 7.8333 3.23611 7.8333 3C7.8333 2.76389 7.75358 2.56583 7.59414 2.40583C7.43414 2.24639 7.23608 2.16667 6.99997 2.16667C6.76386 2.16667 6.56608 2.24639 6.40664 2.40583C6.24664 2.56583 6.16664 2.76389 6.16664 3C6.16664 3.23611 6.24664 3.43417 6.40664 3.59417C6.56608 3.75361 6.76386 3.83333 6.99997 3.83333ZM9.35414 3.83333H10.8125C11.2291 3.83333 11.5902 3.97222 11.8958 4.25C12.2014 4.52778 12.3889 4.86806 12.4583 5.27083L13.6458 13.6042C13.7152 14.1042 13.5869 14.545 13.2608 14.9267C12.9341 15.3089 12.5139 15.5 12 15.5H1.99997C1.48608 15.5 1.06608 15.3089 0.739972 14.9267C0.413305 14.545 0.284694 14.1042 0.354139 13.6042L1.54164 5.27083C1.61108 4.86806 1.79858 4.52778 2.10414 4.25C2.40969 3.97222 2.77081 3.83333 3.18747 3.83333H4.64581C4.60414 3.69444 4.56942 3.55889 4.54164 3.42667C4.51386 3.295 4.49997 3.15278 4.49997 3C4.49997 2.30556 4.74303 1.71528 5.22914 1.22917C5.71525 0.743056 6.30553 0.5 6.99997 0.5C7.69442 0.5 8.28469 0.743056 8.7708 1.22917C9.25692 1.71528 9.49997 2.30556 9.49997 3C9.49997 3.15278 9.48608 3.295 9.4583 3.42667C9.43053 3.55889 9.3958 3.69444 9.35414 3.83333Z" fill="#00704B"/>
</svg>
